<?xml version="1.0" encoding="UTF-8" standalone="no"?>
<svg
   width="640"
   height="200"
   viewBox="0 0 640 200"
   version="1.1"
   id="svg8"
   inkscape:version="1.4 (e7c3feb100, 2024-10-09)"
   xml:space="preserve"
   sodipodi:docname="street_light_markov_model_2.svg"
   inkscape:export-filename="street_light_markov_model_2.png"
   inkscape:export-xdpi="300"
   inkscape:export-ydpi="300"
   xmlns:inkscape="http://www.inkscape.org/namespaces/inkscape"
   xmlns:sodipodi="http://sodipodi.sourceforge.net/DTD/sodipodi-0.dtd"
   xmlns="http://www.w3.org/2000/svg"
   xmlns:svg="http://www.w3.org/2000/svg"
   xmlns:rdf="http://www.w3.org/1999/02/22-rdf-syntax-ns#"
   xmlns:cc="http://creativecommons.org/ns#"
   xmlns:dc="http://purl.org/dc/elements/1.1/"><defs
     id="defs2"><marker
       style="overflow:visible"
       id="Triangle"
       refX="0"
       refY="0"
       orient="auto-start-reverse"
       inkscape:stockid="Triangle arrow"
       markerWidth="0.75"
       markerHeight="0.75"
       viewBox="0 0 1 1"
       inkscape:isstock="true"
       inkscape:collect="always"
       preserveAspectRatio="xMidYMid"><path
         transform="scale(0.5)"
         style="fill:context-stroke;fill-rule:evenodd;stroke:context-stroke;stroke-width:1pt"
         d="M 5.77,0 -2.88,5 V -5 Z"
         id="path135" /></marker></defs><sodipodi:namedview
     id="base"
     pagecolor="#ffffff"
     bordercolor="#666666"
     borderopacity="1.0"
     inkscape:pageopacity="0"
     inkscape:pageshadow="2"
     inkscape:zoom="0.35"
     inkscape:cx="400"
     inkscape:cy="560"
     inkscape:document-units="px"
     inkscape:current-layer="layer1"
     inkscape:document-rotation="0"
     showgrid="false"
     units="px"
     inkscape:pagecheckerboard="true"
     showborder="true"
     inkscape:showpageshadow="true"
     inkscape:deskcolor="#505050" /><metadata
     id="metadata5"><rdf:RDF><cc:Work
         rdf:about=""><dc:format>image/svg+xml</dc:format><dc:type
           rdf:resource="http://purl.org/dc/dcmitype/StillImage" /></cc:Work></rdf:RDF></metadata><g
     inkscape:label="Layer 1"
     inkscape:groupmode="layer"
     id="layer1"><path
       d="m 320.00001,-1e-6 c -27.33334,0 -50,22.666666 -50,49.999999 V 150 c 0,27.66666 22.66666,50 50,50 27.33333,0 50,-22.33334 50,-50 V 49.999998 c 0,-27.333333 -22.66667,-49.999999 -50,-49.999999"
       fill="#94989b"
       id="path23"
       style="stroke-width:12.5" /><path
       d="m 455.00001,-1e-6 c -27.33334,0 -50,22.666666 -50,49.999999 V 150 c 0,27.66666 22.66666,50 50,50 27.33333,0 50,-22.33334 50,-50 V 49.999998 c 0,-27.333333 -22.66667,-49.999999 -50,-49.999999"
       fill="#94989b"
       id="path26"
       style="stroke-width:12.5" /><path
       d="m 590.00001,-1e-6 c -27.33334,0 -50,22.666666 -50,49.999999 V 150 c 0,27.66666 22.66666,50 50,50 27.33333,0 50,-22.33334 50,-50 V 49.999998 c 0,-27.333333 -22.66667,-49.999999 -50,-49.999999"
       fill="#94989b"
       id="path29"
       style="stroke-width:12.5" /><path
       d="m 455.00001,6.333332 c -24,0 -43.66667,19.666666 -43.66667,43.666666 V 150 c 0,24 19.66667,43.66666 43.66667,43.66666 24,0 43.66666,-19.66666 43.66666,-43.66666 V 49.999998 c 0,-24 -19.66666,-43.666666 -43.66666,-43.666666"
       fill="#3e4347"
       id="path27"
       style="stroke-width:12.5" /><path
       d="m 590.00001,6.333332 c -24,0 -43.66667,19.666666 -43.66667,43.666666 V 150 c 0,24 19.66667,43.66666 43.66667,43.66666 24,0 43.66666,-19.66666 43.66666,-43.66666 V 49.999998 c 0,-24 -19.66666,-43.666666 -43.66666,-43.666666"
       fill="#3e4347"
       id="path30"
       style="stroke-width:12.5" /><path
       d="m 49.999993,-1e-6 c -27.333333,0 -50,22.666666 -50,49.999999 V 150 c 0,27.66666 22.666667,50 50,50 27.333334,0 50.000004,-22.33334 50.000004,-50 V 49.999998 C 99.999997,22.666665 77.333327,-1e-6 49.999993,-1e-6"
       fill="#94989b"
       id="path1"
       style="stroke-width:12.5" /><path
       d="m 185.00001,-1e-6 c -27.33334,0 -50,22.666666 -50,49.999999 V 150 c 0,27.66666 22.66666,50 50,50 27.33333,0 50,-22.33334 50,-50 V 49.999998 c 0,-27.333333 -22.66667,-49.999999 -50,-49.999999"
       fill="#94989b"
       id="path20"
       style="stroke-width:12.5" /><path
       d="m 320.00001,6.333332 c -24,0 -43.66667,19.666666 -43.66667,43.666666 V 150 c 0,24 19.66667,43.66666 43.66667,43.66666 24,0 43.66666,-19.66666 43.66666,-43.66666 V 49.999998 c 0,-24 -19.66666,-43.666666 -43.66666,-43.666666"
       fill="#3e4347"
       id="path24"
       style="stroke-width:12.5" /><path
       d="m 185.00001,6.333332 c -24,0 -43.66667,19.666666 -43.66667,43.666666 V 150 c 0,24 19.66667,43.66666 43.66667,43.66666 24,0 43.66666,-19.66666 43.66666,-43.66666 V 49.999998 c 0,-24 -19.66666,-43.666666 -43.66666,-43.666666"
       fill="#3e4347"
       id="path21"
       style="stroke-width:12.5" /><circle
       cx="320"
       cy="100"
       r="25"
       fill="#ffe62e"
       id="circle24"
       style="fill:#ffe030;fill-opacity:1;stroke-width:12.5" /><circle
       cx="320"
       cy="37.333328"
       r="25"
       fill="#ed4c5c"
       id="circle25"
       style="fill:#ff4060;fill-opacity:1;stroke-width:12.5" /><circle
       cx="320"
       cy="162.66666"
       r="25"
       fill="#83bf4f"
       id="circle26"
       style="fill:#80c048;fill-opacity:1;stroke-width:12.5" /><path
       d="m 49.999993,6.333332 c -24,0 -43.666667,19.666666 -43.666667,43.666666 V 150 c 0,24 19.666667,43.66666 43.666667,43.66666 C 73.999997,193.66666 93.666657,174 93.666657,150 V 49.999998 c 0,-24 -19.66666,-43.666666 -43.666664,-43.666666"
       fill="#3e4347"
       id="path2"
       style="stroke-width:12.5" /><circle
       cx="49.999996"
       cy="100"
       r="25"
       fill="#ffe62e"
       id="circle2"
       style="fill:#ffe030;fill-opacity:1;stroke-width:12.5" /><circle
       cx="49.999996"
       cy="37.333328"
       r="25"
       fill="#ed4c5c"
       id="circle3"
       style="fill:#ff4060;fill-opacity:1;stroke-width:12.5" /><circle
       cx="49.999996"
       cy="162.66666"
       r="25"
       fill="#83bf4f"
       id="circle4"
       style="fill:#80c048;fill-opacity:1;stroke-width:12.5" /><path
       style="fill:none;fill-opacity:1;stroke:#ff4060;stroke-width:4;stroke-linecap:round;stroke-linejoin:round;stroke-dasharray:none;stroke-opacity:1"
       d="m 320.00001,6.083329 v 6.249999"
       id="path4"
       sodipodi:nodetypes="cc" /><path
       style="fill:none;fill-opacity:1;stroke:#ff4060;stroke-width:4;stroke-linecap:round;stroke-linejoin:round;stroke-dasharray:none;stroke-opacity:1"
       d="m 320.00001,62.333328 v 6.25"
       id="path5"
       sodipodi:nodetypes="cc" /><path
       style="fill:none;fill-opacity:1;stroke:#ff4060;stroke-width:4;stroke-linecap:round;stroke-linejoin:round;stroke-dasharray:none;stroke-opacity:1"
       d="m 297.90292,59.430417 4.41942,-4.419419"
       id="path6"
       sodipodi:nodetypes="cc" /><path
       style="fill:none;fill-opacity:1;stroke:#ff4060;stroke-width:4;stroke-linecap:round;stroke-linejoin:round;stroke-dasharray:none;stroke-opacity:1"
       d="m 288.75001,37.33333 6.25,-2e-6"
       id="path7"
       sodipodi:nodetypes="cc" /><path
       style="fill:none;fill-opacity:1;stroke:#ff4060;stroke-width:4;stroke-linecap:round;stroke-linejoin:round;stroke-dasharray:none;stroke-opacity:1"
       d="m 345.00001,37.333328 6.25,-2e-6"
       id="path8"
       sodipodi:nodetypes="cc" /><path
       style="fill:none;fill-opacity:1;stroke:#ff4060;stroke-width:4;stroke-linecap:round;stroke-linejoin:round;stroke-dasharray:none;stroke-opacity:1"
       d="m 337.67768,19.655658 4.41942,-4.419419"
       id="path9"
       sodipodi:nodetypes="cc" /><path
       style="fill:none;fill-opacity:1;stroke:#ff4060;stroke-width:4;stroke-linecap:round;stroke-linejoin:round;stroke-dasharray:none;stroke-opacity:1"
       d="m 337.67767,55.011002 4.41942,4.419417"
       id="path10"
       sodipodi:nodetypes="cc" /><path
       style="fill:none;fill-opacity:1;stroke:#ff4060;stroke-width:4;stroke-linecap:round;stroke-linejoin:round;stroke-dasharray:none;stroke-opacity:1"
       d="m 297.90292,15.236241 4.41942,4.419417"
       id="path11"
       sodipodi:nodetypes="cc" /><path
       style="fill:none;fill-opacity:1;stroke:#80c048;stroke-width:4;stroke-linecap:round;stroke-linejoin:round;stroke-dasharray:none;stroke-opacity:1"
       d="m 49.999996,131.41666 v 6.25"
       id="path12"
       sodipodi:nodetypes="cc" /><path
       style="fill:none;fill-opacity:1;stroke:#80c048;stroke-width:4;stroke-linecap:round;stroke-linejoin:round;stroke-dasharray:none;stroke-opacity:1"
       d="m 49.999996,187.66666 v 6.25"
       id="path13"
       sodipodi:nodetypes="cc" /><path
       style="fill:none;fill-opacity:1;stroke:#80c048;stroke-width:4;stroke-linecap:round;stroke-linejoin:round;stroke-dasharray:none;stroke-opacity:1"
       d="m 27.902906,184.76375 4.41942,-4.41942"
       id="path14"
       sodipodi:nodetypes="cc" /><path
       style="fill:none;fill-opacity:1;stroke:#80c048;stroke-width:4;stroke-linecap:round;stroke-linejoin:round;stroke-dasharray:none;stroke-opacity:1"
       d="m 18.749996,162.66666 h 6.25"
       id="path15"
       sodipodi:nodetypes="cc" /><path
       style="fill:none;fill-opacity:1;stroke:#80c048;stroke-width:4;stroke-linecap:round;stroke-linejoin:round;stroke-dasharray:none;stroke-opacity:1"
       d="m 74.999997,162.66666 6.25,-1e-5"
       id="path16"
       sodipodi:nodetypes="cc" /><path
       style="fill:none;fill-opacity:1;stroke:#80c048;stroke-width:4;stroke-linecap:round;stroke-linejoin:round;stroke-dasharray:none;stroke-opacity:1"
       d="m 67.677667,144.98899 4.41942,-4.41942"
       id="path17"
       sodipodi:nodetypes="cc" /><path
       style="fill:none;fill-opacity:1;stroke:#80c048;stroke-width:4;stroke-linecap:round;stroke-linejoin:round;stroke-dasharray:none;stroke-opacity:1"
       d="m 67.677657,180.34433 4.41942,4.41942"
       id="path18"
       sodipodi:nodetypes="cc" /><path
       style="fill:none;fill-opacity:1;stroke:#80c048;stroke-width:4;stroke-linecap:round;stroke-linejoin:round;stroke-dasharray:none;stroke-opacity:1"
       d="m 27.902906,140.56957 4.41942,4.41942"
       id="path19"
       sodipodi:nodetypes="cc" /><circle
       cx="185"
       cy="37.333328"
       r="25"
       fill="#ed4c5c"
       id="circle22"
       style="fill:#ff4060;fill-opacity:1;stroke-width:12.5" /><circle
       cx="185"
       cy="162.66666"
       r="25"
       fill="#83bf4f"
       id="circle23"
       style="fill:#80c048;fill-opacity:1;stroke-width:12.5" /><circle
       cx="455"
       cy="100"
       r="25"
       fill="#ffe62e"
       id="circle27"
       style="fill:#ffe030;fill-opacity:1;stroke-width:12.5" /><circle
       cx="455"
       cy="37.333328"
       r="25"
       fill="#ed4c5c"
       id="circle28"
       style="fill:#ff4060;fill-opacity:1;stroke-width:12.5" /><circle
       cx="455"
       cy="162.66666"
       r="25"
       fill="#83bf4f"
       id="circle29"
       style="fill:#80c048;fill-opacity:1;stroke-width:12.5" /><circle
       cx="590"
       cy="100"
       r="25"
       fill="#ffe62e"
       id="circle30"
       style="fill:#ffe030;fill-opacity:1;stroke-width:12.5" /><circle
       cx="590"
       cy="37.333328"
       r="25"
       fill="#ed4c5c"
       id="circle31"
       style="fill:#ff4060;fill-opacity:1;stroke-width:12.5" /><circle
       cx="590"
       cy="162.66666"
       r="25"
       fill="#83bf4f"
       id="circle32"
       style="fill:#80c048;fill-opacity:1;stroke-width:12.5" /><path
       style="fill:none;fill-opacity:1;stroke:#ffe030;stroke-width:4;stroke-linecap:round;stroke-linejoin:round;stroke-dasharray:none;stroke-opacity:1"
       d="m 185.00001,68.750001 v 6.25"
       id="path12-8"
       sodipodi:nodetypes="cc" /><path
       style="fill:none;fill-opacity:1;stroke:#ffe030;stroke-width:4;stroke-linecap:round;stroke-linejoin:round;stroke-dasharray:none;stroke-opacity:1"
       d="m 185.00001,125 v 6.25"
       id="path13-4"
       sodipodi:nodetypes="cc" /><path
       style="fill:none;fill-opacity:1;stroke:#ffe030;stroke-width:4;stroke-linecap:round;stroke-linejoin:round;stroke-dasharray:none;stroke-opacity:1"
       d="m 162.90292,122.09709 4.41942,-4.41942"
       id="path14-3"
       sodipodi:nodetypes="cc" /><path
       style="fill:none;fill-opacity:1;stroke:#ffe030;stroke-width:4;stroke-linecap:round;stroke-linejoin:round;stroke-dasharray:none;stroke-opacity:1"
       d="m 153.75001,100 h 6.25"
       id="path15-1"
       sodipodi:nodetypes="cc" /><path
       style="fill:none;fill-opacity:1;stroke:#ffe030;stroke-width:4;stroke-linecap:round;stroke-linejoin:round;stroke-dasharray:none;stroke-opacity:1"
       d="m 210.00001,100 6.25,-9e-6"
       id="path16-4"
       sodipodi:nodetypes="cc" /><path
       style="fill:none;fill-opacity:1;stroke:#ffe030;stroke-width:4;stroke-linecap:round;stroke-linejoin:round;stroke-dasharray:none;stroke-opacity:1"
       d="m 202.67768,82.322331 4.41942,-4.41942"
       id="path17-9"
       sodipodi:nodetypes="cc" /><path
       style="fill:none;fill-opacity:1;stroke:#ffe030;stroke-width:4;stroke-linecap:round;stroke-linejoin:round;stroke-dasharray:none;stroke-opacity:1"
       d="m 202.67767,117.67767 4.41942,4.41942"
       id="path18-2"
       sodipodi:nodetypes="cc" /><path
       style="fill:none;fill-opacity:1;stroke:#ffe030;stroke-width:4;stroke-linecap:round;stroke-linejoin:round;stroke-dasharray:none;stroke-opacity:1"
       d="m 162.90292,77.902911 4.41942,4.41942"
       id="path19-0"
       sodipodi:nodetypes="cc" /><circle
       cx="185"
       cy="100"
       r="25"
       fill="#ffe62e"
       id="circle21"
       style="fill:#ffe030;fill-opacity:1;stroke-width:12.5" /><path
       style="fill:none;fill-opacity:1;stroke:#ffe030;stroke-width:4;stroke-linecap:round;stroke-linejoin:round;stroke-dasharray:none;stroke-opacity:1"
       d="m 455.00001,68.750001 v 6.25"
       id="path34"
       sodipodi:nodetypes="cc" /><path
       style="fill:none;fill-opacity:1;stroke:#ffe030;stroke-width:4;stroke-linecap:round;stroke-linejoin:round;stroke-dasharray:none;stroke-opacity:1"
       d="m 455.00001,125 v 6.25"
       id="path35"
       sodipodi:nodetypes="cc" /><path
       style="fill:none;fill-opacity:1;stroke:#ffe030;stroke-width:4;stroke-linecap:round;stroke-linejoin:round;stroke-dasharray:none;stroke-opacity:1"
       d="m 432.90292,122.09709 4.41942,-4.41942"
       id="path36"
       sodipodi:nodetypes="cc" /><path
       style="fill:none;fill-opacity:1;stroke:#ffe030;stroke-width:4;stroke-linecap:round;stroke-linejoin:round;stroke-dasharray:none;stroke-opacity:1"
       d="m 423.75001,100 h 6.25"
       id="path37"
       sodipodi:nodetypes="cc" /><path
       style="fill:none;fill-opacity:1;stroke:#ffe030;stroke-width:4;stroke-linecap:round;stroke-linejoin:round;stroke-dasharray:none;stroke-opacity:1"
       d="m 480.00001,100 6.25,-9e-6"
       id="path38"
       sodipodi:nodetypes="cc" /><path
       style="fill:none;fill-opacity:1;stroke:#ffe030;stroke-width:4;stroke-linecap:round;stroke-linejoin:round;stroke-dasharray:none;stroke-opacity:1"
       d="m 472.67768,82.322331 4.41942,-4.41942"
       id="path39"
       sodipodi:nodetypes="cc" /><path
       style="fill:none;fill-opacity:1;stroke:#ffe030;stroke-width:4;stroke-linecap:round;stroke-linejoin:round;stroke-dasharray:none;stroke-opacity:1"
       d="m 472.67767,117.67767 4.41942,4.41942"
       id="path40"
       sodipodi:nodetypes="cc" /><path
       style="fill:none;fill-opacity:1;stroke:#ffe030;stroke-width:4;stroke-linecap:round;stroke-linejoin:round;stroke-dasharray:none;stroke-opacity:1"
       d="m 432.90292,77.902911 4.41942,4.41942"
       id="path41"
       sodipodi:nodetypes="cc" /><path
       style="fill:none;fill-opacity:1;stroke:#80c048;stroke-width:4;stroke-linecap:round;stroke-linejoin:round;stroke-dasharray:none;stroke-opacity:1"
       d="m 590.00001,131.41666 v 6.25"
       id="path42"
       sodipodi:nodetypes="cc" /><path
       style="fill:none;fill-opacity:1;stroke:#80c048;stroke-width:4;stroke-linecap:round;stroke-linejoin:round;stroke-dasharray:none;stroke-opacity:1"
       d="m 590.00001,187.66666 v 6.25"
       id="path43"
       sodipodi:nodetypes="cc" /><path
       style="fill:none;fill-opacity:1;stroke:#80c048;stroke-width:4;stroke-linecap:round;stroke-linejoin:round;stroke-dasharray:none;stroke-opacity:1"
       d="m 567.90292,184.76375 4.41942,-4.41942"
       id="path44"
       sodipodi:nodetypes="cc" /><path
       style="fill:none;fill-opacity:1;stroke:#80c048;stroke-width:4;stroke-linecap:round;stroke-linejoin:round;stroke-dasharray:none;stroke-opacity:1"
       d="m 558.75001,162.66666 h 6.25"
       id="path45"
       sodipodi:nodetypes="cc" /><path
       style="fill:none;fill-opacity:1;stroke:#80c048;stroke-width:4;stroke-linecap:round;stroke-linejoin:round;stroke-dasharray:none;stroke-opacity:1"
       d="m 615.00001,162.66666 6.25,-1e-5"
       id="path46"
       sodipodi:nodetypes="cc" /><path
       style="fill:none;fill-opacity:1;stroke:#80c048;stroke-width:4;stroke-linecap:round;stroke-linejoin:round;stroke-dasharray:none;stroke-opacity:1"
       d="m 607.67768,144.98899 4.41942,-4.41942"
       id="path47"
       sodipodi:nodetypes="cc" /><path
       style="fill:none;fill-opacity:1;stroke:#80c048;stroke-width:4;stroke-linecap:round;stroke-linejoin:round;stroke-dasharray:none;stroke-opacity:1"
       d="m 607.67767,180.34433 4.41942,4.41942"
       id="path48"
       sodipodi:nodetypes="cc" /><path
       style="fill:none;fill-opacity:1;stroke:#80c048;stroke-width:4;stroke-linecap:round;stroke-linejoin:round;stroke-dasharray:none;stroke-opacity:1"
       d="m 567.90292,140.56957 4.41942,4.41942"
       id="path49"
       sodipodi:nodetypes="cc" /><path
       style="fill:none;stroke:#000000;stroke-width:3;stroke-linecap:round;stroke-linejoin:round;stroke-dasharray:none;stroke-opacity:1;marker-end:url(#Triangle)"
       d="m 104.0002,100 h 20.50968"
       id="path50"
       sodipodi:nodetypes="cc" /><path
       style="fill:none;stroke:#000000;stroke-width:3;stroke-linecap:round;stroke-linejoin:round;stroke-dasharray:none;stroke-opacity:1;marker-end:url(#Triangle)"
       d="m 509.00021,100 h 20.50968"
       id="path53"
       sodipodi:nodetypes="cc" /><path
       style="fill:none;stroke:#000000;stroke-width:3;stroke-linecap:round;stroke-linejoin:round;stroke-dasharray:none;stroke-opacity:1;marker-end:url(#Triangle)"
       d="m 374.00021,100 h 20.50968"
       id="path54"
       sodipodi:nodetypes="cc" /><path
       style="fill:none;stroke:#000000;stroke-width:3;stroke-linecap:round;stroke-linejoin:round;stroke-dasharray:none;stroke-opacity:1;marker-end:url(#Triangle)"
       d="m 239.00021,100 h 20.50968"
       id="path55"
       sodipodi:nodetypes="cc" /></g></svg>
