<?xml version="1.0" encoding="UTF-8" standalone="no"?>
<svg
   width="186"
   height="136"
   viewBox="0 0 186 136"
   version="1.1"
   id="svg8"
   inkscape:version="1.2.2 (b0a8486541, 2022-12-01)"
   sodipodi:docname="street_light_hidden_markov_model.svg"
   inkscape:export-filename="street_light_hidden_markov_model.png"
   inkscape:export-xdpi="300"
   inkscape:export-ydpi="300"
   xmlns:inkscape="http://www.inkscape.org/namespaces/inkscape"
   xmlns:sodipodi="http://sodipodi.sourceforge.net/DTD/sodipodi-0.dtd"
   xmlns:xlink="http://www.w3.org/1999/xlink"
   xmlns="http://www.w3.org/2000/svg"
   xmlns:svg="http://www.w3.org/2000/svg"
   xmlns:rdf="http://www.w3.org/1999/02/22-rdf-syntax-ns#"
   xmlns:cc="http://creativecommons.org/ns#"
   xmlns:dc="http://purl.org/dc/elements/1.1/">
  <defs
     id="defs2">
    <marker
       style="overflow:visible"
       id="ArrowWide"
       refX="0"
       refY="0"
       orient="auto-start-reverse"
       inkscape:stockid="Wide arrow"
       markerWidth="1"
       markerHeight="1"
       viewBox="0 0 1 1"
       inkscape:isstock="true"
       inkscape:collect="always"
       preserveAspectRatio="xMidYMid">
      <path
         style="fill:none;stroke:context-stroke;stroke-width:1;stroke-linecap:butt"
         d="M 3,-3 0,0 3,3"
         transform="rotate(180,0.125,0)"
         sodipodi:nodetypes="ccc"
         id="path1" />
    </marker>
    <marker
       style="overflow:visible"
       id="marker11"
       refX="0"
       refY="0"
       orient="auto-start-reverse"
       inkscape:stockid="Wide, rounded arrow"
       markerWidth="1"
       markerHeight="1"
       viewBox="0 0 1 1"
       inkscape:isstock="true"
       inkscape:collect="always"
       preserveAspectRatio="xMidYMid">
      <path
         style="fill:none;stroke:context-stroke;stroke-width:1;stroke-linecap:round"
         d="M 3,-3 0,0 3,3"
         transform="rotate(180,0.125,0)"
         sodipodi:nodetypes="ccc"
         id="path11" />
    </marker>
    <marker
       style="overflow:visible"
       id="ArrowWide-3"
       refX="0"
       refY="0"
       orient="auto-start-reverse"
       inkscape:stockid="Wide arrow"
       markerWidth="1"
       markerHeight="1"
       viewBox="0 0 1 1"
       inkscape:isstock="true"
       inkscape:collect="always"
       preserveAspectRatio="xMidYMid">
      <path
         style="fill:none;stroke:context-stroke;stroke-width:1;stroke-linecap:butt"
         d="M 3,-3 0,0 3,3"
         transform="rotate(180,0.125,0)"
         sodipodi:nodetypes="ccc"
         id="path1-6" />
    </marker>
  </defs>
  <sodipodi:namedview
     id="base"
     pagecolor="#ffffff"
     bordercolor="#666666"
     borderopacity="1.0"
     inkscape:pageopacity="0.0"
     inkscape:pageshadow="2"
     inkscape:zoom="4.3949342"
     inkscape:cx="159.38805"
     inkscape:cy="83.391465"
     inkscape:document-units="px"
     inkscape:current-layer="layer1"
     inkscape:document-rotation="0"
     showgrid="false"
     units="px"
     inkscape:pagecheckerboard="true"
     inkscape:showpageshadow="false"
     objecttolerance="10000"
     inkscape:snap-path-clip="true"
     inkscape:snap-path-mask="true"
     guidetolerance="10000"
     inkscape:snap-perpendicular="false"
     inkscape:window-width="1920"
     inkscape:window-height="1020"
     inkscape:window-x="0"
     inkscape:window-y="32"
     inkscape:window-maximized="1"
     inkscape:snap-bbox="true"
     inkscape:bbox-paths="true"
     inkscape:bbox-nodes="true"
     inkscape:snap-bbox-edge-midpoints="true"
     inkscape:snap-bbox-midpoints="true"
     inkscape:object-paths="true"
     inkscape:snap-intersection-paths="true"
     inkscape:snap-smooth-nodes="true"
     inkscape:snap-midpoints="true"
     inkscape:snap-object-midpoints="true"
     inkscape:snap-center="true"
     inkscape:snap-text-baseline="true"
     inkscape:snap-page="true"
     inkscape:deskcolor="#d1d1d1" />
  <metadata
     id="metadata5">
    <rdf:RDF>
      <cc:Work
         rdf:about="">
        <dc:format>image/svg+xml</dc:format>
        <dc:type
           rdf:resource="http://purl.org/dc/dcmitype/StillImage" />
      </cc:Work>
    </rdf:RDF>
  </metadata>
  <g
     inkscape:label="Layer 1"
     inkscape:groupmode="layer"
     id="layer1">
    <g
       id="g2468"
       transform="translate(5.0187275,1.7317647)">
      <rect
         style="fill:#c0c0c0;stroke:none;stroke-width:3;stroke-linecap:round;stroke-linejoin:round"
         id="rect1801"
         width="38"
         height="16"
         x="47.908104"
         y="-1.0447998" />
      <rect
         style="fill:#c0c0c0;stroke:none;stroke-width:3;stroke-linecap:round;stroke-linejoin:round"
         id="rect1801-5"
         width="38"
         height="16"
         x="-5.0367684"
         y="88.289673" />
      <rect
         style="fill:#c0c0c0;stroke:none;stroke-width:3;stroke-linecap:round;stroke-linejoin:round"
         id="rect1801-3"
         width="38"
         height="16"
         x="142.99931"
         y="88.289673" />
      <path
         style="fill:#ffc000;fill-opacity:1;stroke:#ff8000;stroke-width:1.5;stroke-linecap:round;stroke-linejoin:round;stroke-dasharray:none;stroke-opacity:1"
         d="M 88.001299,15.659156 C 77.440461,15.177206 69.796964,28.012895 75.251371,37.070713 79.83175,46.489275 94.560159,47.202402 100.02492,38.266238 106.63263,29.071293 99.334639,15.325082 88.001299,15.659156 Z"
         id="path2306"
         sodipodi:nodetypes="cccc" />
      <path
         style="fill:#00ff00;fill-opacity:1;stroke:#004000;stroke-width:1.5;stroke-linecap:round;stroke-linejoin:round;stroke-dasharray:none;stroke-opacity:1"
         d="M 48.134988,89.340842 C 37.574142,88.858882 29.930658,101.69458 35.38506,110.7524 c 4.580375,9.41857 19.308788,10.13168 24.773554,1.19552 6.607217,-9.19504 -0.688578,-22.942798 -12.023626,-22.607078 z"
         id="circle2314"
         sodipodi:nodetypes="cccc" />
      <path
         style="fill:#ff0000;fill-opacity:1;stroke:#400000;stroke-width:1.5;stroke-linecap:round;stroke-linejoin:round;stroke-dasharray:none;stroke-opacity:1"
         d="m 127.86502,89.334352 c -10.56224,-0.48358 -18.20417,12.353638 -12.74993,21.411558 4.58038,9.41856 19.30879,10.13169 24.77355,1.19552 6.60769,-9.19493 -0.69028,-22.941168 -12.02362,-22.607078 z"
         id="circle2312"
         sodipodi:nodetypes="cccc" />
      <path
         style="fill:none;stroke:#000000;stroke-width:1.5;stroke-linecap:round;stroke-linejoin:round;stroke-dasharray:none;stroke-opacity:1;marker-end:url(#marker11)"
         d="M 40.179367,89.976252 C 50.900696,73.122418 61.622024,56.268581 72.343353,39.414744"
         id="path5"
         sodipodi:nodetypes="cc" />
      <path
         style="fill:none;stroke:#000000;stroke-width:1.5;stroke-linecap:round;stroke-linejoin:round;stroke-dasharray:none;stroke-opacity:1;marker-end:url(#marker11)"
         d="M 80.571137,46.454688 55.565581,87.544878"
         id="path6"
         sodipodi:nodetypes="cc" />
      <path
         style="fill:none;stroke:#000000;stroke-width:1.5;stroke-linecap:round;stroke-linejoin:round;stroke-dasharray:none;stroke-opacity:1;marker-end:url(#marker11)"
         d="m 103.65924,39.414742 c 10.72132,16.853838 21.44266,33.707671 32.16398,50.56151"
         id="path7"
         sodipodi:nodetypes="cc" />
      <path
         style="fill:none;stroke:#000000;stroke-width:1.5;stroke-linecap:round;stroke-linejoin:round;stroke-dasharray:none;stroke-opacity:1;marker-end:url(#marker11)"
         d="M 120.43701,87.544878 C 112.10182,73.848147 103.76664,60.151417 95.431449,46.454686"
         id="path8"
         sodipodi:nodetypes="cc" />
      <path
         style="fill:none;stroke:#000000;stroke-width:1.5;stroke-linecap:round;stroke-linejoin:round;stroke-dasharray:none;stroke-opacity:1;marker-end:url(#marker11)"
         d="m 64.808939,98.195972 c 15.460707,-0.002 30.92141,-0.004 46.382121,-0.005"
         id="path9"
         sodipodi:nodetypes="cc" />
      <path
         style="fill:none;stroke:#000000;stroke-width:1.5;stroke-linecap:round;stroke-linejoin:round;stroke-dasharray:none;stroke-opacity:1;marker-end:url(#marker11)"
         d="m 111.19144,109.47927 c -15.460961,0.002 -30.921916,0.004 -46.382873,0.005"
         id="path10"
         sodipodi:nodetypes="cc" />
      <path
         style="fill:none;fill-opacity:1;stroke:#000000;stroke-width:1.5;stroke-linecap:round;stroke-linejoin:round;stroke-dasharray:none;stroke-opacity:1;marker-end:url(#ArrowWide)"
         d="m 27.990933,104.98032 c -9.82153,3.64879 -11.956818,18.25077 -3.579292,24.54943 7.098524,6.20405 19.155842,3.23619 22.583864,-5.54486"
         id="path12"
         sodipodi:nodetypes="ccc" />
      <path
         style="fill:none;fill-opacity:1;stroke:#000000;stroke-width:1.5;stroke-linecap:round;stroke-linejoin:round;stroke-dasharray:none;stroke-opacity:1;marker-end:url(#ArrowWide-3)"
         d="M 108.14536,29.019677 C 117.96689,25.37088 120.10218,10.76891 111.72465,4.470248 104.62613,-1.7338053 92.568809,1.234062 89.140789,10.015104"
         id="path12-7"
         sodipodi:nodetypes="ccc" />
      <path
         style="fill:none;fill-opacity:1;stroke:#000000;stroke-width:1.5;stroke-linecap:round;stroke-linejoin:round;stroke-dasharray:none;stroke-opacity:1;marker-end:url(#ArrowWide)"
         d="m 148.00906,104.97383 c 9.82153,3.64879 11.95682,18.25076 3.57929,24.54943 -7.09852,6.20405 -19.15584,3.23619 -22.58386,-5.54486"
         id="path14"
         sodipodi:nodetypes="ccc" />
      <text
         xml:space="preserve"
         style="font-size:8px;line-height:1.25;font-family:sans-serif"
         x="-0.26870915"
         y="133.20781"
         id="text14"><tspan
           sodipodi:role="line"
           id="tspan14"
           x="-0.26870915"
           y="133.20781"
           style="font-style:normal;font-variant:normal;font-weight:bold;font-stretch:normal;font-size:8px;font-family:'Spline Sans Mono';-inkscape-font-specification:'Spline Sans Mono Bold'">0.05</tspan></text>
      <text
         xml:space="preserve"
         style="font-size:8px;line-height:1.25;font-family:sans-serif"
         id="text14-56"
         transform="translate(-2)"><textPath
           xlink:href="#path5"
           id="textPath14"><tspan
             id="tspan14-9"
             style="font-style:normal;font-variant:normal;font-weight:bold;font-stretch:normal;font-size:8px;font-family:'Spline Sans Mono';-inkscape-font-specification:'Spline Sans Mono Bold'">0.90</tspan></textPath></text>
      <text
         xml:space="preserve"
         style="font-size:8px;line-height:1.25;font-family:sans-serif;text-align:start;text-anchor:start"
         id="text14-3"
         transform="rotate(180,77.815081,58.21191)"><textPath
           xlink:href="#path6"
           id="textPath20"><tspan
             id="tspan14-7"
             style="font-style:normal;font-variant:normal;font-weight:bold;font-stretch:normal;font-size:8px;font-family:'Spline Sans Mono';-inkscape-font-specification:'Spline Sans Mono Bold';text-align:start;text-anchor:start">0.475</tspan></textPath></text>
      <text
         xml:space="preserve"
         style="font-size:8px;line-height:1.25;font-family:sans-serif"
         id="text14-4"
         transform="rotate(180,111.99786,80.838485)"><textPath
           xlink:href="#path8"
           id="textPath16"><tspan
             id="tspan14-5"
             style="font-style:normal;font-variant:normal;font-weight:bold;font-stretch:normal;font-size:8px;font-family:'Spline Sans Mono';-inkscape-font-specification:'Spline Sans Mono Bold'">0.90</tspan></textPath></text>
      <text
         xml:space="preserve"
         style="font-size:8px;line-height:1.25;font-family:sans-serif"
         id="text14-2"
         transform="translate(2)"><textPath
           xlink:href="#path7"
           id="textPath17"><tspan
             id="tspan14-54"
             style="font-style:normal;font-variant:normal;font-weight:bold;font-stretch:normal;font-size:8px;font-family:'Spline Sans Mono';-inkscape-font-specification:'Spline Sans Mono Bold'">0.475</tspan></textPath></text>
      <text
         xml:space="preserve"
         style="font-size:8px;line-height:1.25;font-family:sans-serif"
         id="text14-74"
         transform="translate(0,-2)"><textPath
           xlink:href="#path9"
           id="textPath18"><tspan
             id="tspan14-43"
             style="font-style:normal;font-variant:normal;font-weight:bold;font-stretch:normal;font-size:8px;font-family:'Spline Sans Mono';-inkscape-font-specification:'Spline Sans Mono Bold'">0.05</tspan></textPath></text>
      <text
         xml:space="preserve"
         style="font-size:8px;line-height:1.25;font-family:sans-serif"
         id="text14-0"
         transform="rotate(180,101.56181,113.3862)"><textPath
           xlink:href="#path10"
           id="textPath19"><tspan
             id="tspan14-78"
             style="font-style:normal;font-variant:normal;font-weight:bold;font-stretch:normal;font-size:8px;font-family:'Spline Sans Mono';-inkscape-font-specification:'Spline Sans Mono Bold'">0.05</tspan></textPath></text>
      <text
         xml:space="preserve"
         style="font-size:8px;line-height:1.25;font-family:sans-serif"
         x="117.14499"
         y="6.6041803"
         id="text14-5"><tspan
           sodipodi:role="line"
           id="tspan14-4"
           x="117.14499"
           y="6.6041803"
           style="font-style:normal;font-variant:normal;font-weight:bold;font-stretch:normal;font-size:8px;font-family:'Spline Sans Mono';-inkscape-font-specification:'Spline Sans Mono Bold'">0.05</tspan></text>
      <text
         xml:space="preserve"
         style="font-size:8px;line-height:1.25;font-family:sans-serif"
         x="157.0087"
         y="133.20132"
         id="text14-7"><tspan
           sodipodi:role="line"
           id="tspan14-6"
           x="157.0087"
           y="133.20132"
           style="font-style:normal;font-variant:normal;font-weight:bold;font-stretch:normal;font-size:8px;font-family:'Spline Sans Mono';-inkscape-font-specification:'Spline Sans Mono Bold'">0.05</tspan></text>
      <text
         xml:space="preserve"
         style="font-weight:bold;font-size:8px;line-height:1;font-family:Arial;-inkscape-font-specification:'Arial Bold';opacity:1;fill:#ff0080;stroke-width:3;stroke-linecap:round;stroke-linejoin:round"
         x="48.054092"
         y="5.6785512"
         id="text687"><tspan
           sodipodi:role="line"
           x="48.054092"
           y="5.6785512"
           style="font-style:normal;font-variant:normal;font-weight:bold;font-stretch:normal;font-size:8px;font-family:'Spline Sans Mono';-inkscape-font-specification:'Spline Sans Mono Bold';fill:#000000"
           id="tspan843">{S:0.01,</tspan><tspan
           sodipodi:role="line"
           x="48.054092"
           y="13.895849"
           style="font-style:normal;font-variant:normal;font-weight:bold;font-stretch:normal;font-size:8px;font-family:'Spline Sans Mono';-inkscape-font-specification:'Spline Sans Mono Bold';fill:#000000"
           id="tspan845"> A:0.99}</tspan></text>
      <text
         xml:space="preserve"
         style="font-weight:bold;font-size:8px;line-height:1;font-family:Arial;-inkscape-font-specification:'Arial Bold';fill:#ff0080;stroke-width:3;stroke-linecap:round;stroke-linejoin:round"
         x="-4.890779"
         y="95.013023"
         id="text687-3"><tspan
           sodipodi:role="line"
           x="-4.890779"
           y="95.013023"
           style="font-style:normal;font-variant:normal;font-weight:bold;font-stretch:normal;font-size:8px;font-family:'Spline Sans Mono';-inkscape-font-specification:'Spline Sans Mono Bold';fill:#000000"
           id="tspan843-6">{S:0.01,</tspan><tspan
           sodipodi:role="line"
           x="-4.890779"
           y="103.23032"
           style="font-style:normal;font-variant:normal;font-weight:bold;font-stretch:normal;font-size:8px;font-family:'Spline Sans Mono';-inkscape-font-specification:'Spline Sans Mono Bold';fill:#000000"
           id="tspan845-7"> A:0.99}</tspan></text>
      <text
         xml:space="preserve"
         style="font-weight:bold;font-size:8px;line-height:1;font-family:Arial;-inkscape-font-specification:'Arial Bold';fill:#ff0080;stroke-width:3;stroke-linecap:round;stroke-linejoin:round"
         x="143.14531"
         y="95.013023"
         id="text1709"><tspan
           sodipodi:role="line"
           x="143.14531"
           y="95.013023"
           style="font-style:normal;font-variant:normal;font-weight:bold;font-stretch:normal;font-size:8px;font-family:'Spline Sans Mono';-inkscape-font-specification:'Spline Sans Mono Bold';fill:#000000"
           id="tspan1705">{S:0.85,</tspan><tspan
           sodipodi:role="line"
           x="143.14531"
           y="103.23032"
           style="font-style:normal;font-variant:normal;font-weight:bold;font-stretch:normal;font-size:8px;font-family:'Spline Sans Mono';-inkscape-font-specification:'Spline Sans Mono Bold';fill:#000000"
           id="tspan1707"> A:0.15}</tspan></text>
      <path
         style="fill:#74d24f;stroke-width:1.56331"
         d="m 37.908086,45.336333 c -5.430964,0 -9.823463,4.249769 -9.999647,9.675223 -0.0055,0.16868 0.05679,0.328841 0.175246,0.450974 0.117874,0.121665 0.282724,0.191584 0.451874,0.191584 h 2.494255 c 0.172823,0 0.312661,-0.139994 0.312661,-0.312662 h 13.13177 c 0,0.172668 0.139838,0.312662 0.312661,0.312662 h 2.493943 c 0.169462,0 0.334352,-0.06992 0.452186,-0.191896 0.118147,-0.12229 0.180444,-0.282568 0.17466,-0.450975 -0.175833,-5.425102 -4.568332,-9.67491 -9.999609,-9.67491 z"
         id="path337" />
      <path
         style="fill:#ffd200;stroke-width:1.56331"
         d="m 37.908086,45.336333 c -0.0016,0 -0.0032,1.17e-4 -0.0049,1.17e-4 v 10.005041 l 5.032009,-8.666186 C 41.45959,45.823186 39.743627,45.336333 37.908071,45.336333 Z"
         id="path341" />
      <path
         style="fill:#ff4f19;stroke-width:1.56331"
         d="m 44.786946,55.654153 h 2.493942 c 0.169462,0 0.334352,-0.06992 0.452186,-0.191896 0.118147,-0.12229 0.180444,-0.282568 0.17466,-0.450975 -0.116427,-3.5915 -2.081776,-6.666484 -4.972134,-8.335782 l -5.027396,8.665991 h 6.566041 c 3.9e-5,0.172668 0.139877,0.312662 0.312701,0.312662 z"
         id="path345" />
      <path
         style="fill:#ff9600;stroke-width:1.56331"
         d="m 42.9356,46.6755 -5.027396,8.665991 8.678107,-4.998944 C 45.712462,48.819223 44.45361,47.552202 42.9356,46.6755 Z"
         id="path349" />
      <path
         style="fill:#8b8996;stroke-width:1.56331"
         d="m 37.908086,48.150284 c -3.965364,0 -7.191207,3.225999 -7.191207,7.191207 0,2.280825 1.099199,4.449482 2.940657,5.801038 0.05374,0.0394 0.118459,0.06062 0.185017,0.06062 l 8.13009,7.82e-4 c 0.06656,0 0.131279,-0.02122 0.185017,-0.06062 1.84177,-1.351087 2.941595,-3.519862 2.941595,-5.80178 3.9e-5,-3.965248 -3.225804,-7.191247 -7.191169,-7.191247 z"
         id="path353" />
      <path
         style="fill:#ffffff;stroke-width:1.56331"
         d="m 44.069701,49.179877 c -0.110526,-0.110838 -0.286398,-0.122289 -0.410993,-0.02732 l -5.627902,4.303665 c -0.07176,0.05479 -0.116036,0.137688 -0.122133,0.227617 -0.0058,0.08993 0.02716,0.178178 0.09098,0.241843 l 1.324238,1.324238 c 0.05894,0.05878 0.138313,0.09161 0.221051,0.09161 0.0067,0 0.01376,-1.57e-4 0.02075,-7.82e-4 0.08977,-0.0059 0.172823,-0.05038 0.227461,-0.121977 l 4.303664,-5.627902 c 0.09532,-0.124439 0.08372,-0.300154 -0.02712,-0.410993 z"
         id="path357" />
      <path
         style="fill:#ffffff;stroke-width:1.56331"
         d="m 41.894634,61.907377 h -7.972861 c -0.04319,0 -0.07816,-0.03498 -0.07816,-0.07817 v -2.344959 c 0,-0.04319 0.03498,-0.07816 0.07816,-0.07816 h 7.972861 c 0.04319,0 0.07816,0.03498 0.07816,0.07816 v 2.344959 c 0,0.04319 -0.03498,0.07817 -0.07816,0.07817 z"
         id="path361" />
      <path
         style="fill:#5c546a;stroke-width:1.56331"
         d="m 41.34736,62.220038 h -6.878547 c -0.517219,0 -0.937983,-0.420764 -0.937983,-0.937984 v -1.250645 c 0,-0.517219 0.420764,-0.937983 0.937983,-0.937983 h 6.878547 c 0.517219,0 0.937983,0.420764 0.937983,0.937983 v 1.250645 c 0,0.517259 -0.420764,0.937984 -0.937983,0.937984 z m -6.878547,-2.50129 c -0.172511,0 -0.312661,0.140307 -0.312661,0.312661 v 1.250645 c 0,0.172355 0.14015,0.312661 0.312661,0.312661 h 6.878547 c 0.172511,0 0.312661,-0.140306 0.312661,-0.312661 v -1.250645 c 0,-0.172354 -0.14015,-0.312661 -0.312661,-0.312661 z"
         id="path365" />
      <circle
         style="fill:#5c546a;stroke-width:1.56331"
         cx="37.908203"
         cy="55.341492"
         r="1.8759671"
         id="circle369" />
      <circle
         style="fill:#b9bbc1;stroke-width:1.56331"
         cx="37.908203"
         cy="55.341492"
         r="0.93798357"
         id="circle373" />
      <path
         style="fill:#5c546a;stroke-width:1.56331"
         d="m 33.531142,48.072588 c 0.05311,0 0.106852,-0.01345 0.156018,-0.04182 0.149609,-0.08641 0.200924,-0.277565 0.114512,-0.427173 l -0.629543,-1.090562 c -0.184353,0.09841 -0.36425,0.203698 -0.541412,0.313091 l 0.62927,1.090171 c 0.05804,0.100247 0.163053,0.156292 0.271155,0.156292 z"
         id="path377" />
      <path
         style="fill:#5c546a;stroke-width:1.56331"
         d="m 37.908086,46.899639 c 0.172824,0 0.312662,-0.139994 0.312662,-0.312661 v -1.242985 c -0.104077,-0.0032 -0.207803,-0.0076 -0.312662,-0.0076 -0.104858,0 -0.208584,0.0045 -0.312661,0.0076 v 1.243024 c 0,0.172628 0.139838,0.312622 0.312661,0.312622 z"
         id="path381" />
      <path
         style="fill:#5c546a;stroke-width:1.56331"
         d="m 30.326365,51.276896 c 0.108103,0 0.213118,-0.05604 0.271116,-0.156331 0.08641,-0.149608 0.0351,-0.340761 -0.114512,-0.427173 l -1.090757,-0.629739 c -0.109315,0.177084 -0.212688,0.358193 -0.311059,0.542585 l 1.089194,0.6288 c 0.04913,0.02845 0.102866,0.04186 0.156018,0.04186 z"
         id="path385" />
      <path
         style="fill:#5c546a;stroke-width:1.56331"
         d="m 42.644161,46.512994 -0.62966,1.090602 c -0.08641,0.149608 -0.0351,0.340761 0.114512,0.427173 0.04917,0.02841 0.102904,0.04182 0.156018,0.04182 0.108102,0 0.213117,-0.05605 0.271155,-0.156331 l 0.629426,-1.090211 C 43.00845,46.716693 42.828514,46.611365 42.644161,46.512994 Z"
         id="path389" />
      <path
         style="fill:#5c546a;stroke-width:1.56331"
         d="m 46.424196,50.063692 -1.090719,0.6297 c -0.149608,0.08641 -0.200924,0.277565 -0.114512,0.427173 0.058,0.100286 0.163053,0.156331 0.271156,0.156331 0.05311,0 0.106852,-0.01344 0.156018,-0.04182 l 1.089155,-0.6288 c -0.09837,-0.184392 -0.201784,-0.365462 -0.311098,-0.542584 z"
         id="path393" />
      <path
         style="fill:#74d24f;stroke-width:1.56331"
         d="m 161.9993,62.220038 c -5.43096,0 -9.82346,4.249769 -9.99964,9.675223 -0.006,0.168681 0.0568,0.328841 0.17524,0.450975 0.11788,0.121664 0.28273,0.191583 0.45188,0.191583 h 2.49425 c 0.17282,0 0.31266,-0.139994 0.31266,-0.312661 h 13.13177 c 0,0.172667 0.13984,0.312661 0.31266,0.312661 h 2.49394 c 0.16947,0 0.33436,-0.06992 0.45219,-0.191896 0.11815,-0.12229 0.18044,-0.282568 0.17466,-0.450975 -0.17583,-5.425101 -4.56833,-9.67491 -9.99961,-9.67491 z"
         id="path527" />
      <path
         style="fill:#ffd200;stroke-width:1.56331"
         d="m 161.9993,62.220038 c -0.002,0 -0.003,1.17e-4 -0.005,1.17e-4 v 10.005042 l 5.03201,-8.666187 c -1.47561,-0.852119 -3.19157,-1.338972 -5.02713,-1.338972 z"
         id="path529" />
      <path
         style="fill:#ff4f19;stroke-width:1.56331"
         d="m 168.87816,72.537858 h 2.49394 c 0.16947,0 0.33436,-0.06992 0.45219,-0.191896 0.11815,-0.12229 0.18044,-0.282568 0.17466,-0.450975 -0.11643,-3.5915 -2.08178,-6.666484 -4.97213,-8.335782 l -5.0274,8.665992 h 6.56604 c 4e-5,0.172667 0.13988,0.312661 0.3127,0.312661 z"
         id="path531" />
      <path
         style="fill:#ff9600;stroke-width:1.56331"
         d="m 167.02682,63.559205 -5.0274,8.665992 8.67811,-4.998945 c -0.87385,-1.523324 -2.13271,-2.790345 -3.65071,-3.667047 z"
         id="path533" />
      <path
         style="fill:#8b8996;stroke-width:1.56331"
         d="m 161.9993,65.033989 c -3.96536,0 -7.1912,3.225999 -7.1912,7.191208 0,2.280824 1.09919,4.449481 2.94065,5.801037 0.0537,0.0394 0.11846,0.06062 0.18502,0.06062 l 8.13009,7.81e-4 c 0.0666,0 0.13128,-0.02122 0.18502,-0.06062 1.84177,-1.351087 2.94159,-3.519862 2.94159,-5.80178 4e-5,-3.965248 -3.2258,-7.191247 -7.19117,-7.191246 z"
         id="path535" />
      <path
         style="fill:#ffffff;stroke-width:1.56331"
         d="m 165.98585,78.791082 h -7.97286 c -0.0432,0 -0.0782,-0.03498 -0.0782,-0.07816 v -2.344959 c 0,-0.04319 0.035,-0.07817 0.0782,-0.07817 h 7.97286 c 0.0432,0 0.0782,0.03498 0.0782,0.07817 v 2.344959 c 0,0.04319 -0.035,0.07816 -0.0782,0.07816 z"
         id="path539" />
      <path
         style="fill:#5c546a;stroke-width:1.56331"
         d="m 165.43858,79.103743 h -6.87855 c -0.51722,0 -0.93798,-0.420764 -0.93798,-0.937984 v -1.250644 c 0,-0.51722 0.42076,-0.937984 0.93798,-0.937984 h 6.87855 c 0.51722,0 0.93798,0.420764 0.93798,0.937984 v 1.250644 c 0,0.517259 -0.42076,0.937984 -0.93798,0.937984 z m -6.87855,-2.50129 c -0.17251,0 -0.31266,0.140307 -0.31266,0.312662 v 1.250644 c 0,0.172355 0.14015,0.312662 0.31266,0.312662 h 6.87855 c 0.17251,0 0.31266,-0.140307 0.31266,-0.312662 v -1.250644 c 0,-0.172355 -0.14015,-0.312662 -0.31266,-0.312662 z"
         id="path541" />
      <path
         style="fill:#5c546a;stroke-width:1.56331"
         d="m 157.62236,64.956293 c 0.0531,0 0.10685,-0.01345 0.15602,-0.04182 0.14961,-0.08641 0.20092,-0.277565 0.11451,-0.427173 l -0.62954,-1.090562 c -0.18436,0.09841 -0.36425,0.203698 -0.54142,0.313091 L 157.3512,64.8 c 0.058,0.100247 0.16306,0.156292 0.27116,0.156293 z"
         id="path547" />
      <path
         style="fill:#5c546a;stroke-width:1.56331"
         d="m 161.9993,63.783344 c 0.17283,0 0.31266,-0.139994 0.31266,-0.312661 v -1.242985 c -0.10407,-0.0032 -0.2078,-0.0076 -0.31266,-0.0076 -0.10486,0 -0.20858,0.0045 -0.31266,0.0076 v 1.243024 c 0,0.172628 0.13984,0.312622 0.31266,0.312622 z"
         id="path549" />
      <path
         style="fill:#5c546a;stroke-width:1.56331"
         d="m 154.41758,68.160601 c 0.1081,0 0.21312,-0.05604 0.27112,-0.156331 0.0864,-0.149608 0.0351,-0.340761 -0.11451,-0.427173 l -1.09076,-0.629739 c -0.10932,0.177084 -0.21269,0.358193 -0.31106,0.542585 l 1.08919,0.628801 c 0.0491,0.02845 0.10287,0.04186 0.15602,0.04186 z"
         id="path551" />
      <path
         style="fill:#5c546a;stroke-width:1.56331"
         d="m 166.73538,63.3967 -0.62966,1.090601 c -0.0864,0.149608 -0.0351,0.340762 0.11451,0.427173 0.0492,0.02841 0.1029,0.04182 0.15602,0.04182 0.1081,0 0.21311,-0.05604 0.27115,-0.156331 l 0.62943,-1.09021 c -0.17716,-0.109354 -0.3571,-0.214681 -0.54145,-0.313052 z"
         id="path553" />
      <path
         style="fill:#5c546a;stroke-width:1.56331"
         d="m 170.51541,66.947397 -1.09072,0.6297 c -0.14961,0.08641 -0.20092,0.277565 -0.11451,0.427173 0.058,0.100287 0.16305,0.156331 0.27116,0.156331 0.0531,0 0.10685,-0.01344 0.15601,-0.04182 l 1.08916,-0.628801 c -0.0984,-0.184392 -0.20178,-0.365462 -0.3111,-0.542585 z"
         id="path555" />
      <path
         style="fill:#ffffff;stroke-width:1.56331"
         d="m 153.28566,72.225116 c -2.2e-4,-0.156528 0.11605,-0.288986 0.2713,-0.309933 l 7.02268,-0.936378 c 0.0895,-0.01199 0.17941,0.01531 0.24731,0.07459 0.0677,0.0595 0.10679,0.145197 0.10668,0.235345 v 1.872754 c -1.1e-4,0.08324 -0.033,0.162581 -0.0915,0.221085 -0.005,0.0048 -0.01,0.0096 -0.0152,0.01412 -0.0677,0.05928 -0.15783,0.08658 -0.24709,0.07459 l -7.02268,-0.936377 c -0.15539,-0.02059 -0.27144,-0.153046 -0.27144,-0.309795 z"
         id="path516" />
      <circle
         style="fill:#5c546a;stroke-width:1.56331"
         cx="-63.479961"
         cy="165.62181"
         r="1.8759674"
         id="circle518"
         transform="matrix(-0.70710678,0.70710678,0.70710678,0.70710678,0,0)" />
      <circle
         style="fill:#b9bbc1;stroke-width:1.56331"
         cx="-63.479961"
         cy="165.62181"
         r="0.93798369"
         id="circle520"
         transform="matrix(-0.70710678,0.70710678,0.70710678,0.70710678,0,0)" />
    </g>
  </g>
</svg>
